<?xml version="1.0" ?><!DOCTYPE svg  PUBLIC '-//W3C//DTD SVG 1.1//EN'  'http://www.w3.org/Graphics/SVG/1.1/DTD/svg11.dtd'><svg enable-background="new 0 0 128 128" id="Слой_1" version="1.1" viewBox="0 0 128 128" xml:space="preserve" xmlns="http://www.w3.org/2000/svg" xmlns:xlink="http://www.w3.org/1999/xlink"><g><g><path d="M64.8,124.5C51.4,124.5,41,97.6,41,63.2S51.4,2,64.8,2s23.8,26.9,23.8,61.2S78.1,124.5,64.8,124.5z     M64.8,4.5c-11.5,0-21.2,26.9-21.2,58.8S53.2,122,64.8,122C76.3,122,86,95.1,86,63.2S76.3,4.5,64.8,4.5z" fill="#2D2E2D"/></g><g><circle cx="79.1" cy="109.5" fill="#008E9D" r="7.5"/></g><g><path d="M79.1,118.3c-4.8,0-8.8-3.9-8.8-8.8s3.9-8.8,8.8-8.8s8.8,3.9,8.8,8.8S83.9,118.3,79.1,118.3z M79.1,103.3    c-3.4,0-6.2,2.8-6.2,6.2s2.8,6.2,6.2,6.2s6.2-2.8,6.2-6.2S82.5,103.3,79.1,103.3z" fill="#2D2E2D"/></g><g><path d="M102.2,100.2c-13.1,0-31.5-6.1-49.3-16.3c-14-8.1-26-17.7-33.8-27.1c-8.1-9.8-10.7-18.3-7.4-24    c2.4-4.2,7.8-6.4,15.6-6.4c13.1,0,31.5,6.1,49.3,16.3c29.8,17.1,47.9,39.6,41.3,51.1C115.5,98,110,100.2,102.2,100.2z M27.3,28.8    c-4.8,0-11,0.9-13.5,5.2c-2.7,4.7-0.1,12.4,7.2,21.1c7.6,9.2,19.4,18.6,33.2,26.6c17.5,10,35.4,16,48.1,16c4.8,0,11-0.9,13.5-5.2    c5.7-10-12.7-31.8-40.4-47.7C57.9,34.8,39.9,28.8,27.3,28.8z" fill="#2D2E2D"/></g><g><circle cx="17.5" cy="52.6" fill="#008E9D" r="7.5"/></g><g><path d="M17.5,61.4c-1.5,0-3-0.4-4.4-1.2C9,57.8,7.5,52.4,9.9,48.2c1.6-2.7,4.5-4.4,7.6-4.4c1.5,0,3,0.4,4.4,1.2    c4.2,2.4,5.6,7.8,3.2,11.9C23.5,59.7,20.6,61.4,17.5,61.4z M17.5,46.4c-2.2,0-4.3,1.2-5.4,3.1c-1.7,3-0.7,6.8,2.3,8.5    c0.9,0.5,2,0.8,3.1,0.8c2.2,0,4.3-1.2,5.4-3.1c1.7-3,0.7-6.8-2.3-8.5C19.7,46.6,18.6,46.4,17.5,46.4z" fill="#2D2E2D"/></g><g><path d="M27.3,100.3c-7.8,0-13.1-2.2-15.6-6.4c-6.7-11.5,11.4-34,41.2-51.2c17.9-10.3,36.3-16.5,49.4-16.5    c7.8,0,13.1,2.2,15.6,6.4c3.3,5.7,0.7,14.2-7.4,24c-7.8,9.5-19.8,19.1-33.8,27.2C58.8,94.1,40.3,100.3,27.3,100.3z M102.2,28.7    c-12.6,0-30.6,6-48.1,16.1c-27.6,15.9-46,37.8-40.3,47.8c2.5,4.3,8.6,5.2,13.4,5.2c12.6,0,30.6-6,48.1-16.1    c13.8-7.9,25.5-17.4,33.1-26.6c7.2-8.8,9.8-16.5,7.1-21.1C113.2,29.6,107,28.7,102.2,28.7z" fill="#2D2E2D"/></g><g><circle cx="97.7" cy="27.7" fill="#008E9D" r="7.5"/></g><g><path d="M97.7,36.5c-3.1,0-6-1.7-7.6-4.4c-2.4-4.2-1-9.5,3.2-12c1.3-0.8,2.8-1.2,4.4-1.2c3.1,0,6,1.7,7.6,4.4    c2.4,4.2,1,9.5-3.2,12C100.7,36.1,99.2,36.5,97.7,36.5z M97.7,21.5c-1.1,0-2.2,0.3-3.1,0.8c-3,1.7-4,5.6-2.3,8.5    c1.1,1.9,3.2,3.1,5.4,3.1c1.1,0,2.2-0.3,3.1-0.8c3-1.7,4-5.6,2.3-8.5C102,22.7,99.9,21.5,97.7,21.5z" fill="#2D2E2D"/></g></g></svg>